<svg width="68" height="20" viewBox="0 0 68 20" fill="none" xmlns="http://www.w3.org/2000/svg">
<path d="M0.048 16.228C0.592 15.796 0.84 15.596 0.792 15.628C2.36 14.332 3.592 13.268 4.488 12.436C5.4 11.604 6.168 10.732 6.792 9.81999C7.416 8.90799 7.728 8.01999 7.728 7.15599C7.728 6.49999 7.576 5.98799 7.272 5.61999C6.968 5.25199 6.512 5.06799 5.904 5.06799C5.296 5.06799 4.816 5.29999 4.464 5.76399C4.128 6.21199 3.96 6.85199 3.96 7.68399H0C0.032 6.32399 0.32 5.18799 0.864 4.27599C1.424 3.36399 2.152 2.69199 3.048 2.25999C3.96 1.82799 4.968 1.61199 6.072 1.61199C7.976 1.61199 9.408 2.09999 10.368 3.07599C11.344 4.05199 11.832 5.32399 11.832 6.89199C11.832 8.60399 11.248 10.196 10.08 11.668C8.912 13.124 7.424 14.548 5.616 15.94H12.096V19.276H0.048V16.228Z" fill="white"/>
<path d="M18.4149 8.35599C18.8949 7.61999 19.4949 7.04399 20.2149 6.62799C20.9349 6.19599 21.7349 5.97999 22.6149 5.97999V10.324H21.4869C20.4629 10.324 19.6949 10.548 19.1829 10.996C18.6709 11.428 18.4149 12.196 18.4149 13.3V19.516H14.3109V6.12399H18.4149V8.35599Z" fill="white"/>
<path d="M26.6406 4.73199C25.9206 4.73199 25.3286 4.52399 24.8646 4.10799C24.4166 3.67599 24.1926 3.14799 24.1926 2.52399C24.1926 1.88399 24.4166 1.35599 24.8646 0.939992C25.3286 0.507992 25.9206 0.291992 26.6406 0.291992C27.3446 0.291992 27.9206 0.507992 28.3686 0.939992C28.8326 1.35599 29.0646 1.88399 29.0646 2.52399C29.0646 3.14799 28.8326 3.67599 28.3686 4.10799C27.9206 4.52399 27.3446 4.73199 26.6406 4.73199ZM28.6806 6.12399V19.516H24.5766V6.12399H28.6806Z" fill="white"/>
<path d="M37.1027 19.708C35.9347 19.708 34.8947 19.508 33.9827 19.108C33.0707 18.708 32.3507 18.164 31.8227 17.476C31.2947 16.772 30.9987 15.988 30.9347 15.124H34.9907C35.0387 15.588 35.2547 15.964 35.6387 16.252C36.0227 16.54 36.4947 16.684 37.0547 16.684C37.5667 16.684 37.9587 16.588 38.2307 16.396C38.5187 16.188 38.6627 15.924 38.6627 15.604C38.6627 15.22 38.4627 14.94 38.0627 14.764C37.6627 14.572 37.0147 14.364 36.1187 14.14C35.1587 13.916 34.3587 13.684 33.7187 13.444C33.0787 13.188 32.5267 12.796 32.0627 12.268C31.5987 11.724 31.3667 10.996 31.3667 10.084C31.3667 9.31599 31.5747 8.61999 31.9907 7.99599C32.4227 7.35599 33.0467 6.85199 33.8627 6.48399C34.6947 6.11599 35.6787 5.93199 36.8147 5.93199C38.4947 5.93199 39.8147 6.34799 40.7747 7.17999C41.7507 8.01199 42.3107 9.11599 42.4547 10.492H38.6627C38.5987 10.028 38.3907 9.65999 38.0387 9.38799C37.7027 9.11599 37.2547 8.97999 36.6947 8.97999C36.2147 8.97999 35.8467 9.07599 35.5907 9.26799C35.3347 9.44399 35.2067 9.69199 35.2067 10.012C35.2067 10.396 35.4067 10.684 35.8067 10.876C36.2227 11.068 36.8627 11.26 37.7267 11.452C38.7187 11.708 39.5267 11.964 40.1507 12.22C40.7747 12.46 41.3187 12.86 41.7827 13.42C42.2627 13.964 42.5107 14.7 42.5267 15.628C42.5267 16.412 42.3027 17.116 41.8547 17.74C41.4227 18.348 40.7907 18.828 39.9587 19.18C39.1427 19.532 38.1907 19.708 37.1027 19.708Z" fill="white"/>
<path d="M62.1255 5.97999C63.7895 5.97999 65.1095 6.48399 66.0855 7.49199C67.0775 8.49999 67.5735 9.89999 67.5735 11.692V19.516H63.4935V12.244C63.4935 11.38 63.2615 10.716 62.7975 10.252C62.3495 9.77199 61.7255 9.53199 60.9255 9.53199C60.1255 9.53199 59.4935 9.77199 59.0295 10.252C58.5815 10.716 58.3575 11.38 58.3575 12.244V19.516H54.2775V12.244C54.2775 11.38 54.0455 10.716 53.5815 10.252C53.1335 9.77199 52.5095 9.53199 51.7095 9.53199C50.9095 9.53199 50.2775 9.77199 49.8135 10.252C49.3655 10.716 49.1415 11.38 49.1415 12.244V19.516H45.0375V6.12399H49.1415V7.80399C49.5575 7.24399 50.1015 6.80399 50.7735 6.48399C51.4455 6.14799 52.2055 5.97999 53.0535 5.97999C54.0615 5.97999 54.9575 6.19599 55.7415 6.62799C56.5415 7.05999 57.1655 7.67599 57.6135 8.47599C58.0775 7.73999 58.7095 7.13999 59.5095 6.67599C60.3095 6.21199 61.1815 5.97999 62.1255 5.97999Z" fill="white"/>
</svg>
